<svg width="100" height="15" viewBox="0 0 100 15" fill="none" xmlns="http://www.w3.org/2000/svg">
<path d="M12.06 14.5L11.8 9C11.72 7.26 11.62 5.16 11.64 3.34H11.58C11.14 4.98 10.58 6.8 9.98 8.5L8 14.34H6.12L4.32 8.58C3.8 6.86 3.32 5.02 2.96 3.34H2.92C2.86 5.1 2.78 7.24 2.68 9.08L2.38 14.5H0.08L0.98 1.02H4.22L5.98 6.44C6.46 8.02 6.88 9.62 7.22 11.12H7.28C7.64 9.66 8.1 8 8.62 6.42L10.48 1.02H13.68L14.46 14.5H12.06ZM25.2206 10.32H18.7006C18.7606 12.08 20.1206 12.84 21.7006 12.84C22.8406 12.84 23.6406 12.66 24.4006 12.4L24.7606 14.08C23.9206 14.44 22.7606 14.7 21.3606 14.7C18.2006 14.7 16.3406 12.76 16.3406 9.78C16.3406 7.08 17.9806 4.54 21.1006 4.54C24.2606 4.54 25.3006 7.14 25.3006 9.28C25.3006 9.74 25.2606 10.1 25.2206 10.32ZM18.7006 8.6H22.9806C23.0006 7.7 22.6006 6.22 20.9606 6.22C19.4406 6.22 18.8006 7.6 18.7006 8.6ZM33.7931 0.299999H36.2531V11.76C36.2531 12.76 36.2931 13.84 36.3331 14.5H34.1531L34.0331 12.96H33.9931C33.4131 14.04 32.2331 14.72 30.8331 14.72C28.4931 14.72 26.6531 12.74 26.6531 9.74C26.6331 6.48 28.6731 4.54 31.0131 4.54C32.3531 4.54 33.3131 5.08 33.7531 5.8H33.7931V0.299999ZM33.7931 10.28V8.82C33.7931 8.62 33.7731 8.36 33.7331 8.16C33.5131 7.22 32.7331 6.44 31.6131 6.44C30.0331 6.44 29.1531 7.84 29.1531 9.64C29.1531 11.44 30.0331 12.74 31.5931 12.74C32.5931 12.74 33.4731 12.06 33.7131 11C33.7731 10.78 33.7931 10.54 33.7931 10.28ZM41.3542 14.5H38.8942V4.76H41.3542V14.5ZM40.1342 0.699999C40.9742 0.699999 41.4942 1.28 41.5142 2.04C41.5142 2.76 40.9742 3.36 40.1142 3.36C39.2942 3.36 38.7542 2.76 38.7542 2.04C38.7542 1.28 39.3142 0.699999 40.1342 0.699999ZM50.8314 12.38L51.1714 14.2C50.6514 14.44 49.6314 14.7 48.4114 14.7C45.3714 14.7 43.3914 12.74 43.3914 9.72C43.3914 6.8 45.3914 4.54 48.8114 4.54C49.7114 4.54 50.6314 4.74 51.1914 4.98L50.7514 6.84C50.3514 6.64 49.7714 6.46 48.8914 6.46C47.0114 6.46 45.8914 7.84 45.9114 9.62C45.9114 11.62 47.2114 12.76 48.8914 12.76C49.7314 12.76 50.3514 12.58 50.8314 12.38ZM55.4558 14.5H52.9958V4.76H55.4558V14.5ZM54.2358 0.699999C55.0758 0.699999 55.5958 1.28 55.6158 2.04C55.6158 2.76 55.0758 3.36 54.2158 3.36C53.3958 3.36 52.8558 2.76 52.8558 2.04C52.8558 1.28 53.4158 0.699999 54.2358 0.699999ZM58.113 14.5V7.66C58.113 6.54 58.073 5.6 58.033 4.76H60.173L60.293 6.22H60.353C60.793 5.46 61.853 4.54 63.473 4.54C65.173 4.54 66.933 5.64 66.933 8.72V14.5H64.473V9C64.473 7.6 63.953 6.54 62.613 6.54C61.633 6.54 60.953 7.24 60.693 7.98C60.613 8.18 60.573 8.48 60.573 8.76V14.5H58.113ZM77.8183 10.32H71.2983C71.3583 12.08 72.7183 12.84 74.2983 12.84C75.4383 12.84 76.2383 12.66 76.9983 12.4L77.3583 14.08C76.5183 14.44 75.3583 14.7 73.9583 14.7C70.7983 14.7 68.9383 12.76 68.9383 9.78C68.9383 7.08 70.5783 4.54 73.6983 4.54C76.8583 4.54 77.8983 7.14 77.8983 9.28C77.8983 9.74 77.8583 10.1 77.8183 10.32ZM71.2983 8.6H75.5783C75.5983 7.7 75.1983 6.22 73.5583 6.22C72.0383 6.22 71.3983 7.6 71.2983 8.6Z" fill="white"/>
<path d="M91.0714 10.68H86.8114L85.6514 14.5H83.1114L87.4314 1.02H90.5714L94.9514 14.5H92.2914L91.0714 10.68ZM87.2114 8.82H90.6714L89.6114 5.5C89.3514 4.68 89.1314 3.76 88.9314 2.98H88.8914C88.6914 3.76 88.4714 4.7 88.2514 5.5L87.2114 8.82ZM96.8263 1.02H99.2863V14.5H96.8263V1.02Z" fill="#00BBE0"/>
</svg>
