<svg width="28" height="28" viewBox="0 0 28 28" fill="none" xmlns="http://www.w3.org/2000/svg">
<path d="M6.66237 21.5207H9.03697V13.9998H6.66237V21.5207ZM18.9637 21.5207H21.3383V6.08317H18.9637V21.5207ZM12.8128 21.5207H15.1878V17.1665H12.8128V21.5207ZM12.8128 13.9998H15.1878V10.8332H12.8128V13.9998ZM3.40426 27.4582C2.60442 27.4582 1.92741 27.1811 1.37324 26.6269C0.819076 26.0728 0.541992 25.3957 0.541992 24.5959V3.40377C0.541992 2.60393 0.819076 1.92692 1.37324 1.37275C1.92741 0.818587 2.60442 0.541504 3.40426 0.541504H24.5964C25.3962 0.541504 26.0732 0.818587 26.6274 1.37275C27.1816 1.92692 27.4587 2.60393 27.4587 3.40377V24.5959C27.4587 25.3957 27.1816 26.0728 26.6274 26.6269C26.0732 27.1811 25.3962 27.4582 24.5964 27.4582H3.40426ZM3.40426 25.0832H24.5964C24.7183 25.0832 24.8299 25.0324 24.9313 24.9308C25.0329 24.8294 25.0837 24.7178 25.0837 24.5959V3.40377C25.0837 3.28186 25.0329 3.17023 24.9313 3.0689C24.8299 2.9673 24.7183 2.9165 24.5964 2.9165H3.40426C3.28235 2.9165 3.17072 2.9673 3.06939 3.0689C2.96779 3.17023 2.91699 3.28186 2.91699 3.40377V24.5959C2.91699 24.7178 2.96779 24.8294 3.06939 24.9308C3.17072 25.0324 3.28235 25.0832 3.40426 25.0832Z" fill="#00BBE0"/>
</svg>
