<svg width="26" height="28" viewBox="0 0 26 28" fill="none" xmlns="http://www.w3.org/2000/svg">
<path d="M3.51899 27.0417C2.81254 27.0417 2.20904 26.7915 1.70849 26.2912C1.20817 25.7906 0.958008 25.1871 0.958008 24.4807V5.51931C0.958008 4.81287 1.20817 4.20937 1.70849 3.70881C2.20904 3.20849 2.81254 2.95833 3.51899 2.95833H9.82315C9.91217 2.17185 10.2555 1.50306 10.8531 0.951978C11.4504 0.400659 12.166 0.125 12.9997 0.125C13.8424 0.125 14.5625 0.400659 15.1601 0.951978C15.7577 1.50306 16.0964 2.17185 16.1762 2.95833H22.4804C23.1868 2.95833 23.7903 3.20849 24.2909 3.70881C24.7912 4.20937 25.0413 4.81287 25.0413 5.51931V24.4807C25.0413 25.1871 24.7912 25.7906 24.2909 26.2912C23.7903 26.7915 23.1868 27.0417 22.4804 27.0417H3.51899ZM3.51899 24.9167H22.4804C22.5894 24.9167 22.6893 24.8712 22.78 24.7803C22.8709 24.6896 22.9163 24.5898 22.9163 24.4807V5.51931C22.9163 5.41023 22.8709 5.31035 22.78 5.21969C22.6893 5.12878 22.5894 5.08333 22.4804 5.08333H3.51899C3.4099 5.08333 3.31003 5.12878 3.21936 5.21969C3.12846 5.31035 3.08301 5.41023 3.08301 5.51931V24.4807C3.08301 24.5898 3.12846 24.6896 3.21936 24.7803C3.31003 24.8712 3.4099 24.9167 3.51899 24.9167ZM6.27051 21.5655H15.4788V19.4409H6.27051V21.5655ZM6.27051 16.0625H19.7288V13.9375H6.27051V16.0625ZM6.27051 10.5591H19.7288V8.43446H6.27051V10.5591ZM12.9997 4.15719C13.3066 4.15719 13.5604 4.05684 13.7611 3.85614C13.9618 3.65545 14.0622 3.40163 14.0622 3.09469C14.0622 2.78774 13.9618 2.53392 13.7611 2.33323C13.5604 2.13253 13.3066 2.03219 12.9997 2.03219C12.6927 2.03219 12.4389 2.13253 12.2382 2.33323C12.0375 2.53392 11.9372 2.78774 11.9372 3.09469C11.9372 3.40163 12.0375 3.65545 12.2382 3.85614C12.4389 4.05684 12.6927 4.15719 12.9997 4.15719Z" fill="#00BBE0"/>
</svg>
