<svg width="28" height="28" viewBox="0 0 28 28" fill="none" xmlns="http://www.w3.org/2000/svg">
<path d="M14.0003 27.4582C12.1539 27.4582 10.4134 27.105 8.77889 26.3985C7.14436 25.6921 5.71619 24.7278 4.49439 23.5058C3.27232 22.284 2.30807 20.8558 1.60164 19.2213C0.895208 17.5867 0.541992 15.8463 0.541992 13.9998C0.541992 12.9097 0.663777 11.8577 0.907346 10.8439C1.15092 9.83 1.49806 8.87445 1.94878 7.97723C2.39951 7.08001 2.94153 6.24625 3.57487 5.47596C4.2082 4.70541 4.9145 4.01059 5.69376 3.3915L15.9126 13.6099L14.2438 15.2788L5.69376 6.72877C4.88204 7.66848 4.21625 8.7408 3.69639 9.94571C3.17679 11.1504 2.91699 12.5017 2.91699 13.9998C2.91699 17.0609 3.99894 19.6734 6.16283 21.8373C8.32671 24.0012 10.9392 25.0832 14.0003 25.0832C17.0614 25.0832 19.6739 24.0012 21.8378 21.8373C24.0017 19.6734 25.0837 17.0609 25.0837 13.9998C25.0837 11.2066 24.1672 8.76204 22.3342 6.66623C20.5012 4.57043 18.1191 3.35298 15.1878 3.01388V6.08317H12.8128V0.541504H14.0003C15.8468 0.541504 17.5872 0.89472 19.2218 1.60115C20.8563 2.30758 22.2845 3.27183 23.5063 4.4939C24.7283 5.7157 25.6926 7.14387 26.399 8.7784C27.1054 10.4129 27.4587 12.1534 27.4587 13.9998C27.4587 15.8463 27.1054 17.5867 26.399 19.2213C25.6926 20.8558 24.7283 22.284 23.5063 23.5058C22.2845 24.7278 20.8563 25.6921 19.2218 26.3985C17.5872 27.105 15.8468 27.4582 14.0003 27.4582ZM6.08247 15.4003C5.68532 15.4003 5.35282 15.266 5.08497 14.9973C4.81712 14.7287 4.6832 14.3958 4.6832 13.9986C4.6832 13.6015 4.81752 13.269 5.08616 13.0011C5.3548 12.7333 5.68769 12.5994 6.08485 12.5994C6.482 12.5994 6.8145 12.7337 7.08235 13.0023C7.35019 13.271 7.48412 13.6039 7.48412 14.001C7.48412 14.3982 7.3498 14.7307 7.08116 14.9985C6.81252 15.2664 6.47962 15.4003 6.08247 15.4003ZM13.9991 23.317C13.602 23.317 13.2695 23.1826 13.0016 22.914C12.7338 22.6454 12.5999 22.3125 12.5999 21.9153C12.5999 21.5182 12.7342 21.1857 13.0028 20.9178C13.2715 20.65 13.6044 20.516 14.0015 20.516C14.3987 20.516 14.7312 20.6504 14.999 20.919C15.2669 21.1876 15.4008 21.5205 15.4008 21.9177C15.4008 22.3148 15.2665 22.6473 14.9978 22.9152C14.7292 23.183 14.3963 23.317 13.9991 23.317ZM21.9158 15.4003C21.5187 15.4003 21.1862 15.266 20.9183 14.9973C20.6505 14.7287 20.5165 14.3958 20.5165 13.9986C20.5165 13.6015 20.6509 13.269 20.9195 13.0011C21.1881 12.7333 21.521 12.5994 21.9182 12.5994C22.3153 12.5994 22.6478 12.7337 22.9157 13.0023C23.1835 13.271 23.3174 13.6039 23.3174 14.001C23.3174 14.3982 23.1831 14.7307 22.9145 14.9985C22.6459 15.2664 22.313 15.4003 21.9158 15.4003Z" fill="#00BBE0"/>
</svg>
