<svg width="22" height="30" viewBox="0 0 22 30" fill="none" xmlns="http://www.w3.org/2000/svg">
<path d="M0.617188 29.8544V27.4794H8.53385V23.521H8.13802C6.05726 23.521 4.28366 22.7877 2.81723 21.321C1.35053 19.8546 0.617188 18.081 0.617188 16.0002C0.617188 14.4636 1.04904 13.0655 1.91275 11.806C2.77672 10.5464 3.93031 9.62835 5.37352 9.05175C5.50335 8.06322 5.96912 7.28171 6.77081 6.70723C7.57277 6.13274 8.45073 5.93179 9.40469 6.10437L8.44281 3.43725L9.94698 2.88308L9.39281 1.4276L11.8224 0.532227L12.3279 2.03639L13.7711 1.51271L17.9119 12.809L16.4687 13.3632L17.0229 14.8673L14.5933 15.7627L14.0878 14.2585L12.5836 14.8432L11.6031 12.0783C11.248 12.4884 10.8181 12.8061 10.3135 13.0315C9.80923 13.2568 9.28303 13.3533 8.73494 13.3208C8.11374 13.2884 7.5448 13.1026 7.0281 12.7635C6.51167 12.4244 6.09407 11.995 5.77529 11.4754C4.92082 11.9079 4.24328 12.5261 3.74269 13.3299C3.24235 14.1337 2.99219 15.0238 2.99219 16.0002C2.99219 17.4297 3.49252 18.6446 4.49319 19.645C5.49385 20.6457 6.7088 21.146 8.13802 21.146H20.4089V23.521H11.8834V27.4794H21.3834V29.8544H0.617188ZM13.7347 12.3645L15.4641 11.6888L12.6505 3.91185L10.842 4.55746L13.7347 12.3645ZM8.9289 11.4331C9.42897 11.4331 9.84842 11.2639 10.1872 10.9256C10.5263 10.5873 10.6959 10.1681 10.6959 9.66806C10.6959 9.16799 10.5267 8.74841 10.1884 8.40931C9.85013 8.07021 9.43094 7.90067 8.93087 7.90067C8.43081 7.90067 8.01122 8.06982 7.67213 8.40812C7.33329 8.74643 7.16387 9.16562 7.16387 9.66568C7.16387 10.1658 7.33303 10.5853 7.67133 10.9244C8.00964 11.2635 8.42883 11.4331 8.9289 11.4331Z" fill="#00BBE0"/>
</svg>
