<svg width="30" height="30" viewBox="0 0 30 30" fill="none" xmlns="http://www.w3.org/2000/svg">
<path d="M0.833008 30.0003V25.7503H29.1663V30.0003H0.833008ZM6.49967 19.2527H8.25138L20.0097 7.51599L19.119 6.6118L18.2364 5.74268L6.49967 17.501V19.2527ZM4.37467 21.3777V16.5965L20.2552 0.737947C20.4603 0.532766 20.6933 0.377522 20.9539 0.272217C21.2144 0.166911 21.4854 0.114258 21.7671 0.114258C22.049 0.114258 22.322 0.166911 22.5859 0.272217C22.8499 0.377522 23.0918 0.540086 23.3116 0.759905L25.0144 2.48434C25.2343 2.68952 25.3932 2.92457 25.4912 3.18949C25.5891 3.45417 25.6381 3.72782 25.6381 4.01045C25.6381 4.27536 25.5884 4.53874 25.489 4.80059C25.3896 5.06267 25.2314 5.30221 25.0144 5.5192L9.15592 21.3777H4.37467ZM20.0097 7.51599L19.119 6.6118L18.2364 5.74268L20.0097 7.51599Z" fill="#00BBE0"/>
</svg>
