<svg width="28" height="28" viewBox="0 0 28 28" fill="none" xmlns="http://www.w3.org/2000/svg">
<path d="M12.9997 8.69031C15.0031 8.69031 17.0668 8.39009 19.1909 7.78966C21.3149 7.18947 22.5432 6.55882 22.8756 5.89771C22.5521 5.21298 21.3542 4.57277 19.2819 3.97706C17.2098 3.38135 15.1157 3.0835 12.9997 3.0835C10.9056 3.0835 8.82334 3.37769 6.75288 3.96608C4.68219 4.5547 3.46338 5.19858 3.09647 5.89771C3.46881 6.58243 4.69352 7.21898 6.77059 7.80737C8.84742 8.396 10.9238 8.69031 12.9997 8.69031ZM11.4251 22.8513C11.5976 23.2581 11.7942 23.6437 12.0147 24.008C12.2355 24.3721 12.492 24.7167 12.7843 25.0418C11.1153 25.0272 9.55564 24.8905 8.10545 24.6317C6.65525 24.3729 5.40339 24.017 4.34986 23.5639C3.29657 23.1108 2.46794 22.5736 1.86397 21.9524C1.25999 21.3312 0.958008 20.6628 0.958008 19.9471V5.91683C0.958008 5.25572 1.28538 4.62589 1.94011 4.02735C2.59485 3.42905 3.47578 2.90193 4.5829 2.446C5.68979 1.99007 6.97117 1.62822 8.42703 1.36047C9.88266 1.09249 11.4069 0.958496 12.9997 0.958496C14.5835 0.958496 16.1032 1.09249 17.5589 1.36047C19.0145 1.62822 20.2959 1.99231 21.403 2.45273C22.5099 2.91314 23.3931 3.44038 24.0525 4.03443C24.7117 4.62825 25.0413 5.25572 25.0413 5.91683C25.0413 6.55079 24.7026 7.16007 24.0252 7.74468C23.3476 8.32953 22.4485 8.84992 21.3279 9.30585C20.2073 9.76178 18.9237 10.1236 17.477 10.3914C16.0304 10.6594 14.5379 10.7934 12.9997 10.7934C11.0109 10.7934 9.1552 10.6049 7.43253 10.2281C5.70986 9.85127 4.26002 9.3114 3.08301 8.6085V13.2208C4.07279 14.0217 5.31922 14.6184 6.8223 15.0108C8.32515 15.4029 9.90119 15.6445 11.5504 15.7354C11.4069 15.9987 11.2829 16.3015 11.1785 16.6438C11.0742 16.9862 10.9938 17.3772 10.9374 17.8168C9.48433 17.6969 8.0659 17.4812 6.68205 17.1698C5.29797 16.8583 4.09829 16.4021 3.08301 15.8009V20.0835C3.49526 20.7736 4.47465 21.374 6.02117 21.8844C7.5677 22.3947 9.36899 22.717 11.4251 22.8513ZM26.3819 27.8752L22.5838 24.0909C22.1099 24.3797 21.6078 24.6103 21.0775 24.7829C20.5472 24.9555 19.9978 25.0418 19.4292 25.0418C17.8763 25.0418 16.5527 24.4946 15.4583 23.4003C14.3642 22.3061 13.8171 20.9826 13.8171 19.4297C13.8171 17.8768 14.3642 16.5532 15.4583 15.4588C16.5527 14.3646 17.8763 13.8176 19.4292 13.8176C20.9821 13.8176 22.3056 14.3646 23.3998 15.4588C24.4942 16.5532 25.0413 17.8768 25.0413 19.4297C25.0413 19.9983 24.9597 20.5499 24.7963 21.0847C24.6326 21.6195 24.3929 22.1194 24.0769 22.5843L27.8747 26.3824L26.3819 27.8752ZM19.4292 22.9168C20.4027 22.9168 21.2272 22.579 21.9027 21.9032C22.5785 21.2277 22.9163 20.4032 22.9163 19.4297C22.9163 18.4562 22.5785 17.6316 21.9027 16.9559C21.2272 16.2803 20.4027 15.9426 19.4292 15.9426C18.4557 15.9426 17.6311 16.2803 16.9554 16.9559C16.2799 17.6316 15.9421 18.4562 15.9421 19.4297C15.9421 20.4032 16.2799 21.2277 16.9554 21.9032C17.6311 22.579 18.4557 22.9168 19.4292 22.9168Z" fill="#00BBE0"/>
</svg>
