<svg width="34" height="24" viewBox="0 0 34 24" fill="none" xmlns="http://www.w3.org/2000/svg">
<path d="M4.63773 15.4166H6.14506L7.04004 12.8956H11.3701L12.2896 15.4166H13.7878L10.0393 5.44758H8.37083L4.63773 15.4166ZM7.52454 11.583L9.16567 7.04319H9.24483L10.886 11.583H7.52454ZM20.0752 8.43177V6.34889C20.936 5.9491 21.8368 5.64919 22.7776 5.44917C23.7186 5.24914 24.6955 5.14912 25.7083 5.14912C26.3438 5.14912 26.9609 5.19438 27.5596 5.28489C28.1584 5.37514 28.7593 5.49442 29.3623 5.64273V7.62783C28.7696 7.42068 28.1803 7.27039 27.5945 7.17698C27.0089 7.08356 26.3802 7.03685 25.7083 7.03685C24.6955 7.03685 23.7145 7.15719 22.7653 7.39785C21.8164 7.63852 20.9197 7.98316 20.0752 8.43177ZM20.0752 17.1096V14.9963C20.9157 14.5965 21.814 14.2966 22.7701 14.0965C23.7261 13.8968 24.7056 13.7969 25.7083 13.7969C26.3438 13.7969 26.9609 13.842 27.5596 13.9323C28.1584 14.0225 28.7593 14.1418 29.3623 14.2901V16.2752C28.7696 16.0681 28.1803 15.9178 27.5945 15.8244C27.0089 15.7312 26.3802 15.6846 25.7083 15.6846C24.6955 15.6846 23.7145 15.8059 22.7653 16.0484C21.8164 16.2909 20.9197 16.6447 20.0752 17.1096ZM20.0752 12.7859V10.6726C20.936 10.2728 21.8368 9.97288 22.7776 9.77285C23.7186 9.57282 24.6955 9.47281 25.7083 9.47281C26.3438 9.47281 26.9609 9.51807 27.5596 9.60858C28.1584 9.69883 28.7593 9.81811 29.3623 9.96641V11.9515C28.7696 11.7444 28.1803 11.5941 27.5945 11.5007C27.0089 11.4075 26.3802 11.3609 25.7083 11.3609C24.6955 11.3609 23.7145 11.4863 22.7653 11.737C21.8164 11.9877 20.9197 12.3373 20.0752 12.7859ZM8.29167 18.364C9.60293 18.364 10.8787 18.5127 12.119 18.8101C13.3593 19.1075 14.5904 19.574 15.8125 20.2094V4.64365C14.7002 3.91901 13.4965 3.37553 12.2013 3.01321C10.9061 2.65089 9.60293 2.46973 8.29167 2.46973C7.34167 2.46973 6.45408 2.54428 5.6289 2.69337C4.80372 2.84273 3.95571 3.08683 3.08488 3.42567C2.96322 3.4663 2.87693 3.52476 2.826 3.60102C2.77533 3.67702 2.75 3.76067 2.75 3.85198V18.8267C2.75 18.969 2.8008 19.0731 2.9024 19.1391C3.00373 19.205 3.11535 19.2126 3.23727 19.1616C3.9883 18.9059 4.78089 18.7091 5.61504 18.571C6.44946 18.433 7.34167 18.364 8.29167 18.364ZM18.1875 20.2094C19.4096 19.574 20.6407 19.1075 21.881 18.8101C23.1213 18.5127 24.3971 18.364 25.7083 18.364C26.6583 18.364 27.5505 18.433 28.385 18.571C29.2191 18.7091 30.0117 18.9059 30.7627 19.1616C30.8846 19.2126 30.9963 19.205 31.0976 19.1391C31.1992 19.0731 31.25 18.969 31.25 18.8267V3.85198C31.25 3.76067 31.2247 3.67953 31.174 3.60854C31.1231 3.53755 31.0368 3.4766 30.9151 3.42567C30.0443 3.08683 29.1963 2.84273 28.3711 2.69337C27.5459 2.54428 26.6583 2.46973 25.7083 2.46973C24.3971 2.46973 23.0939 2.65089 21.7987 3.01321C20.5035 3.37553 19.2998 3.91901 18.1875 4.64365V20.2094ZM17 23.6923C15.7233 22.7505 14.3461 22.0228 12.8683 21.5093C11.3905 20.9958 9.86497 20.739 8.29167 20.739C7.32557 20.739 6.37663 20.846 5.44483 21.06C4.51304 21.2743 3.61476 21.5895 2.75 22.0057C2.18581 22.2654 1.64892 22.2242 1.13935 21.8822C0.629785 21.5402 0.375 21.0556 0.375 20.4283V3.23725C0.375 2.89604 0.462875 2.57581 0.638625 2.27656C0.814111 1.97705 1.06731 1.76132 1.39823 1.62937C2.46988 1.10766 3.58679 0.721463 4.74896 0.470768C5.91113 0.220074 7.09203 0.0947266 8.29167 0.0947266C9.83225 0.0947266 11.3375 0.305311 12.8073 0.726477C14.2769 1.14791 15.6745 1.76963 17 2.59164C18.3255 1.76963 19.7231 1.14791 21.1927 0.726477C22.6625 0.305311 24.1678 0.0947266 25.7083 0.0947266C26.908 0.0947266 28.0889 0.220074 29.251 0.470768C30.4132 0.721463 31.5301 1.10766 32.6018 1.62937C32.9327 1.76132 33.1859 1.97705 33.3614 2.27656C33.5371 2.57581 33.625 2.89604 33.625 3.23725V20.4283C33.625 21.0556 33.3601 21.5352 32.8302 21.8671C32.3003 22.1989 31.7431 22.2349 31.1586 21.9752C30.3041 21.5691 29.4186 21.2615 28.5021 21.0525C27.5856 20.8435 26.6544 20.739 25.7083 20.739C24.135 20.739 22.6095 20.9958 21.1317 21.5093C19.6539 22.0228 18.2767 22.7505 17 23.6923Z" fill="#00BBE0"/>
</svg>
