<svg width="32" height="29" viewBox="0 0 32 29" fill="none" xmlns="http://www.w3.org/2000/svg">
<path d="M15.9997 28.1838L14.2521 26.6128C11.6274 24.2317 9.45695 22.1856 7.74061 20.4746C6.02428 18.7633 4.6642 17.2402 3.66036 15.9055C2.65653 14.571 1.95524 13.3535 1.55651 12.2531C1.15751 11.153 0.958008 10.0366 0.958008 8.90397C0.958008 6.65696 1.71563 4.77569 3.23088 3.26018C4.7464 1.74493 6.62766 0.987305 8.87468 0.987305C10.2569 0.987305 11.5632 1.31057 12.7934 1.9571C14.0237 2.60362 15.0924 3.5308 15.9997 4.73862C16.9069 3.5308 17.9757 2.60362 19.2059 1.9571C20.4362 1.31057 21.7424 0.987305 23.1247 0.987305C25.3717 0.987305 27.253 1.74493 28.7685 3.26018C30.2837 4.77569 31.0413 6.65696 31.0413 8.90397C31.0413 10.0366 30.8418 11.153 30.4428 12.2531C30.0441 13.3535 29.3428 14.571 28.339 15.9055C27.3352 17.2402 25.9776 18.7633 24.2663 20.4746C22.5552 22.1856 20.3822 24.2317 17.7473 26.6128L15.9997 28.1838ZM15.9997 24.9748C18.533 22.6953 20.6177 20.7415 22.2538 19.1133C23.89 17.4854 25.183 16.0711 26.133 14.8704C27.083 13.6697 27.7427 12.6034 28.1122 11.6716C28.4816 10.7401 28.6663 9.81755 28.6663 8.90397C28.6663 7.32064 28.1386 6.00119 27.083 4.94564C26.0275 3.89008 24.708 3.3623 23.1247 3.3623C21.8744 3.3623 20.7188 3.71697 19.658 4.42631C18.5974 5.1359 17.7576 6.12298 17.1385 7.38753H14.8609C14.2315 6.11269 13.389 5.1231 12.3335 4.41878C11.2779 3.71446 10.125 3.3623 8.87468 3.3623C7.30137 3.3623 5.98443 3.89008 4.92386 4.94564C3.86329 6.00119 3.33301 7.32064 3.33301 8.90397C3.33301 9.81755 3.51773 10.7401 3.88717 11.6716C4.25662 12.6034 4.91634 13.6697 5.86634 14.8704C6.81634 16.0711 8.1094 17.4829 9.74551 19.1058C11.3816 20.7287 13.4663 22.685 15.9997 24.9748Z" fill="#00BBE0"/>
</svg>
