<svg width="26" height="26" viewBox="0 0 26 26" fill="none" xmlns="http://www.w3.org/2000/svg">
<path d="M7.41553 19.7566C7.77088 19.7566 8.06849 19.6364 8.30838 19.3961C8.54804 19.1557 8.66786 18.8578 8.66786 18.5025C8.66786 18.1471 8.54768 17.8495 8.30732 17.6096C8.06696 17.37 7.7691 17.2502 7.41376 17.2502C7.05841 17.2502 6.76091 17.3703 6.52126 17.6107C6.28137 17.8511 6.16142 18.1489 6.16142 18.5043C6.16142 18.8596 6.28161 19.1571 6.52197 19.3968C6.76256 19.6367 7.06042 19.7566 7.41553 19.7566ZM7.41553 14.2532C7.77088 14.2532 8.06849 14.133 8.30838 13.8927C8.54804 13.6523 8.66786 13.3544 8.66786 12.9991C8.66786 12.6438 8.54768 12.3463 8.30732 12.1066C8.06696 11.8669 7.7691 11.7471 7.41376 11.7471C7.05841 11.7471 6.76091 11.8673 6.52126 12.1077C6.28137 12.348 6.16142 12.6459 6.16142 13.0012C6.16142 13.3566 6.28161 13.6541 6.52197 13.8937C6.76256 14.1334 7.06042 14.2532 7.41553 14.2532ZM7.41553 8.75016C7.77088 8.75016 8.06849 8.62998 8.30838 8.38962C8.54804 8.14926 8.66786 7.85141 8.66786 7.49606C8.66786 7.14071 8.54768 6.84321 8.30732 6.60356C8.06696 6.36367 7.7691 6.24372 7.41376 6.24372C7.05841 6.24372 6.76091 6.3639 6.52126 6.60427C6.28137 6.84463 6.16142 7.14248 6.16142 7.49783C6.16142 7.85318 6.28161 8.15079 6.52197 8.39068C6.76256 8.63034 7.06042 8.75016 7.41553 8.75016ZM11.7194 19.5657H19.7834V17.4411H11.7194V19.5657ZM11.7194 14.0627H19.7834V11.9377H11.7194V14.0627ZM11.7194 8.55927H19.7834V6.43462H11.7194V8.55927ZM3.51899 25.0418C2.80333 25.0418 2.19759 24.7939 1.70176 24.2981C1.20592 23.8022 0.958008 23.1965 0.958008 22.4809V3.51948C0.958008 2.80382 1.20592 2.19808 1.70176 1.70225C2.19759 1.20641 2.80333 0.958496 3.51899 0.958496H22.4804C23.196 0.958496 23.8018 1.20641 24.2976 1.70225C24.7934 2.19808 25.0413 2.80382 25.0413 3.51948V22.4809C25.0413 23.1965 24.7934 23.8022 24.2976 24.2981C23.8018 24.7939 23.196 25.0418 22.4804 25.0418H3.51899ZM3.51899 22.9168H22.4804C22.5894 22.9168 22.6893 22.8714 22.78 22.7805C22.8709 22.6898 22.9163 22.5899 22.9163 22.4809V3.51948C22.9163 3.41039 22.8709 3.31052 22.78 3.21985C22.6893 3.12895 22.5894 3.0835 22.4804 3.0835H3.51899C3.4099 3.0835 3.31003 3.12895 3.21936 3.21985C3.12846 3.31052 3.08301 3.41039 3.08301 3.51948V22.4809C3.08301 22.5899 3.12846 22.6898 3.21936 22.7805C3.31003 22.8714 3.4099 22.9168 3.51899 22.9168Z" fill="#00BBE0"/>
</svg>
