<svg width="24" height="24" viewBox="0 0 24 24" fill="none" xmlns="http://www.w3.org/2000/svg">
<path d="M12 11.5125C10.476 11.5125 9.17151 10.97 8.0864 9.88487C7.00102 8.79949 6.45833 7.49482 6.45833 5.97087C6.45833 4.44691 7.00102 3.14237 8.0864 2.05726C9.17151 0.971887 10.476 0.429199 12 0.429199C13.524 0.429199 14.8285 0.971887 15.9136 2.05726C16.999 3.14237 17.5417 4.44691 17.5417 5.97087C17.5417 7.49482 16.999 8.79949 15.9136 9.88487C14.8285 10.97 13.524 11.5125 12 11.5125ZM0.125 23.5704V20.0503C0.125 19.275 0.335584 18.5569 0.75675 17.8961C1.17792 17.2354 1.74079 16.7274 2.44537 16.3722C4.01024 15.6051 5.58895 15.0296 7.18152 14.6459C8.77409 14.2623 10.3802 14.0704 12 14.0704C13.6198 14.0704 15.2259 14.2623 16.8185 14.6459C18.411 15.0296 19.9898 15.6051 21.5546 16.3722C22.2592 16.7274 22.8221 17.2354 23.2432 17.8961C23.6644 18.5569 23.875 19.275 23.875 20.0503V23.5704H0.125ZM2.5 21.1954H21.5V20.0503C21.5 19.7296 21.4071 19.4328 21.2213 19.1596C21.0356 18.8868 20.7834 18.6641 20.4649 18.4915C19.1006 17.8196 17.7096 17.3106 16.292 16.9643C14.8741 16.6184 13.4435 16.4454 12 16.4454C10.5565 16.4454 9.12586 16.6184 7.70798 16.9643C6.29037 17.3106 4.89941 17.8196 3.5351 18.4915C3.21659 18.6641 2.96444 18.8868 2.77867 19.1596C2.59289 19.4328 2.5 19.7296 2.5 20.0503V21.1954ZM12 9.13753C12.8708 9.13753 13.6163 8.82746 14.2365 8.20732C14.8566 7.58718 15.1667 6.8417 15.1667 5.97087C15.1667 5.10003 14.8566 4.35455 14.2365 3.73441C13.6163 3.11427 12.8708 2.8042 12 2.8042C11.1292 2.8042 10.3837 3.11427 9.76354 3.73441C9.1434 4.35455 8.83333 5.10003 8.83333 5.97087C8.83333 6.8417 9.1434 7.58718 9.76354 8.20732C10.3837 8.82746 11.1292 9.13753 12 9.13753Z" fill="#00BBE0"/>
</svg>
