<svg width="30" height="30" viewBox="0 0 30 30" fill="none" xmlns="http://www.w3.org/2000/svg">
<path d="M4.58008 12.8171L8.06341 14.2908C8.49381 13.43 8.95259 12.5982 9.43972 11.7955C9.92686 10.9927 10.4637 10.2025 11.0504 9.42484L8.72722 8.97439C8.64595 8.95407 8.56731 8.95657 8.49131 8.98191C8.41504 9.00724 8.34643 9.05038 8.28547 9.11134L4.58008 12.8171ZM9.95708 15.7827L14.4545 20.2556C15.6339 19.7624 16.8568 19.0804 18.1235 18.2096C19.3902 17.3387 20.593 16.3338 21.7319 15.1949C23.5079 13.4189 24.8816 11.484 25.853 9.39001C26.8243 7.29632 27.3049 5.14206 27.2946 2.92724C25.08 2.91721 22.9243 3.39775 20.8275 4.36886C18.7306 5.34024 16.794 6.71404 15.0178 8.49028C13.8791 9.62896 12.8744 10.8343 12.0035 12.1062C11.1327 13.3779 10.4506 14.6034 9.95708 15.7827ZM17.5816 12.6161C17.0457 12.0801 16.7777 11.4286 16.7777 10.6614C16.7777 9.89404 17.0457 9.24236 17.5816 8.7064C18.1176 8.17045 18.7757 7.90247 19.556 7.90247C20.3366 7.90247 20.9949 8.17045 21.5308 8.7064C22.0668 9.24236 22.3348 9.89404 22.3348 10.6614C22.3348 11.4286 22.0668 12.0801 21.5308 12.6161C20.9949 13.152 20.3366 13.42 19.556 13.42C18.7757 13.42 18.1176 13.152 17.5816 12.6161ZM17.4051 25.6572L21.1105 21.9518C21.1714 21.8908 21.2146 21.8222 21.2399 21.7459C21.2652 21.6699 21.2679 21.5913 21.2478 21.51L20.797 19.1869C20.0196 19.7735 19.2295 20.3063 18.4267 20.7853C17.6237 21.2645 16.7919 21.7193 15.9314 22.1497L17.4051 25.6572ZM29.4598 0.753323C29.7986 3.80414 29.4378 6.6957 28.3772 9.42801C27.3166 12.1603 25.5714 14.7414 23.1415 17.1713L22.8676 17.4452L23.5828 21.0291C23.6784 21.5059 23.6571 21.9697 23.5191 22.4204C23.3811 22.8712 23.1425 23.2659 22.8035 23.6048L16.5952 29.798L13.6201 22.8072L7.41504 16.6017L0.423828 13.6116L6.59289 7.41836C6.93172 7.07953 7.33059 6.83847 7.78949 6.69518C8.24813 6.55215 8.71601 6.5284 9.19312 6.62393L12.8075 7.35463C12.8581 7.30397 12.9012 7.25832 12.9365 7.21768C12.9721 7.17704 13.0153 7.13125 13.066 7.08032C15.4958 4.6507 18.0728 2.90402 20.797 1.84028C23.5211 0.776543 26.4087 0.414226 29.4598 0.753323ZM3.15825 21.4463C3.92959 20.675 4.86996 20.2877 5.97935 20.2845C7.08847 20.2816 8.02871 20.6658 8.80006 21.4372C9.5714 22.2085 9.95312 23.1488 9.9452 24.2579C9.93702 25.3673 9.54726 26.3077 8.77591 27.079C8.17715 27.6778 7.19469 28.1918 5.82854 28.6212C4.46238 29.0505 2.7095 29.3941 0.569891 29.6519C0.82771 27.5126 1.1738 25.7598 1.60816 24.3937C2.04279 23.0275 2.55948 22.0451 3.15825 21.4463ZM4.85122 23.1298C4.56702 23.414 4.29297 23.9032 4.02908 24.5975C3.76519 25.2918 3.58548 26.0002 3.48995 26.7228C4.21274 26.6275 4.92115 26.4494 5.61518 26.1884C6.30947 25.9277 6.79872 25.6552 7.08293 25.371C7.3996 25.0543 7.56611 24.6742 7.58247 24.2306C7.59857 23.787 7.44829 23.4069 7.13162 23.0902C6.81495 22.7735 6.43482 22.6218 5.99122 22.635C5.54789 22.6482 5.16789 22.8131 4.85122 23.1298Z" fill="#00BBE0"/>
</svg>
