<svg width="28" height="28" viewBox="0 0 28 28" fill="none" xmlns="http://www.w3.org/2000/svg">
<path d="M10.7311 27.4582L10.1917 23.1427C9.81231 23.0156 9.4232 22.8377 9.02441 22.6089C8.62586 22.3799 8.26945 22.1347 7.95518 21.8733L3.95841 23.5623L0.689453 17.8957L4.14647 15.283C4.11389 15.0724 4.09075 14.8608 4.07706 14.6483C4.06336 14.4358 4.05652 14.2241 4.05652 14.0133C4.05652 13.8119 4.06336 13.6072 4.07706 13.3992C4.09075 13.1912 4.11389 12.9637 4.14647 12.7167L0.689453 10.104L3.95841 4.46461L7.94137 6.14017C8.28302 5.86959 8.6477 5.62214 9.03539 5.39784C9.42309 5.17353 9.80405 4.99326 10.1783 4.85702L10.7311 0.541504H17.2698L17.8092 4.87048C18.2342 5.0249 18.6187 5.20517 18.9627 5.4113C19.3069 5.61742 19.6544 5.86038 20.005 6.14017L24.0425 4.46461L27.3115 10.104L23.7999 12.7574C23.8507 12.9862 23.8784 13.2001 23.8831 13.3992C23.8876 13.598 23.8898 13.7982 23.8898 13.9998C23.8898 14.1923 23.8853 14.388 23.876 14.587C23.8671 14.7859 23.8345 15.0133 23.7783 15.2695L27.2626 17.8957L23.9933 23.5623L20.005 21.8595C19.6544 22.1393 19.2965 22.3867 18.9315 22.6018C18.5665 22.8172 18.1924 22.993 17.8092 23.1292L17.2698 27.4582H10.7311ZM12.5838 25.3332H15.3682L15.8775 21.5383C16.6005 21.3494 17.2612 21.081 17.8595 20.7333C18.458 20.3852 19.0352 19.9379 19.591 19.3913L23.1107 20.8707L24.5057 18.4623L21.4326 16.1468C21.5507 15.7799 21.631 15.4202 21.6735 15.0676C21.7162 14.7154 21.7376 14.3594 21.7376 13.9998C21.7376 13.631 21.7162 13.2751 21.6735 12.932C21.631 12.5887 21.5507 12.2381 21.4326 11.8802L24.5327 9.53734L23.138 7.129L19.5772 8.62996C19.1031 8.12327 18.5351 7.6756 17.8733 7.28696C17.2112 6.89832 16.5415 6.62314 15.8641 6.4614L15.4171 2.6665H12.6057L12.1368 6.44794C11.4141 6.61865 10.7467 6.88014 10.1347 7.23242C9.52249 7.58493 8.93847 8.03898 8.38266 8.59455L4.86295 7.129L3.46824 9.53734L6.52754 11.8175C6.40948 12.1537 6.32684 12.5034 6.27962 12.8665C6.2324 13.2296 6.20879 13.6119 6.20879 14.0133C6.20879 14.3821 6.2324 14.7436 6.27962 15.0978C6.32684 15.4519 6.40499 15.8016 6.51408 16.1468L3.46824 18.4623L4.86295 20.8707L8.3692 19.3832C8.90683 19.9352 9.48164 20.3875 10.0936 20.74C10.7059 21.0923 11.3825 21.3628 12.1234 21.5517L12.5838 25.3332ZM14.0167 18.2498C15.1954 18.2498 16.1984 17.8362 17.0257 17.0088C17.8531 16.1815 18.2667 15.1785 18.2667 13.9998C18.2667 12.8212 17.8531 11.8182 17.0257 10.9908C16.1984 10.1635 15.1954 9.74984 14.0167 9.74984C12.8234 9.74984 11.8168 10.1635 10.9968 10.9908C10.1768 11.8182 9.76674 12.8212 9.76674 13.9998C9.76674 15.1785 10.1768 16.1815 10.9968 17.0088C11.8168 17.8362 12.8234 18.2498 14.0167 18.2498Z" fill="#00BBE0"/>
</svg>
