<svg width="34" height="31" viewBox="0 0 34 31" fill="none" xmlns="http://www.w3.org/2000/svg">
<path d="M29.3559 30.742L17.5724 18.9584H16.7807C16.0582 20.3731 15.0191 21.5185 13.6635 22.3947C12.3077 23.2705 10.7809 23.7084 9.08333 23.7084C6.66426 23.7084 4.60817 22.8617 2.91506 21.1684C1.22169 19.4752 0.375 17.4192 0.375 15.0001C0.375 13.2078 0.86834 11.5961 1.85502 10.165C2.84144 8.73391 4.12842 7.7128 5.71598 7.10163L1.2581 2.64415L2.95108 0.951172L31.0489 29.049L29.3559 30.742ZM24.9167 18.4438L23.0562 16.5834H24.9167V18.4438ZM30.3519 23.879L27.9769 21.504H28.0833V16.5834H31.25V13.4168H19.8896L17.5146 11.0418H33.625V18.9584H30.4583V23.879H30.3519ZM9.08333 21.3334C10.7783 21.3334 12.1115 20.8589 13.0828 19.91C14.0542 18.9611 14.7123 18.0309 15.0573 17.1194H15.7579L7.59738 8.95888C6.21301 9.25127 5.05903 9.95677 4.13542 11.0754C3.21181 12.1938 2.75 13.502 2.75 15.0001C2.75 16.7418 3.37014 18.2327 4.61042 19.473C5.85069 20.7133 7.34167 21.3334 9.08333 21.3334ZM9.08333 17.5576C8.38007 17.5576 7.77801 17.3071 7.27715 16.8063C6.77629 16.3054 6.52585 15.7034 6.52585 15.0001C6.52585 14.2968 6.77629 13.6948 7.27715 13.1939C7.77801 12.693 8.38007 12.4426 9.08333 12.4426C9.7866 12.4426 10.3887 12.693 10.8895 13.1939C11.3904 13.6948 11.6408 14.2968 11.6408 15.0001C11.6408 15.7034 11.3904 16.3054 10.8895 16.8063C10.3887 17.3071 9.7866 17.5576 9.08333 17.5576Z" fill="#00BBE0"/>
</svg>
