<svg width="28" height="28" viewBox="0 0 28 28" fill="none" xmlns="http://www.w3.org/2000/svg">
<path d="M25.9419 27.5804L15.9974 17.6355C15.2057 18.2892 14.2953 18.8007 13.2661 19.1702C12.2369 19.5396 11.1723 19.7243 10.0721 19.7243C7.36595 19.7243 5.07566 18.7874 3.20125 16.9135C1.32685 15.0396 0.389648 12.7499 0.389648 10.0442C0.389648 7.33884 1.32659 5.04829 3.20046 3.17256C5.07434 1.2971 7.3641 0.359375 10.0698 0.359375C12.7751 0.359375 15.0657 1.29658 16.9414 3.17098C18.8169 5.04538 19.7546 7.33567 19.7546 10.0419C19.7546 11.1726 19.5649 12.2526 19.1854 13.2818C18.8057 14.3109 18.2991 15.206 17.6658 15.9671L27.6103 25.9116L25.9419 27.5804ZM10.0721 17.3497C12.1123 17.3497 13.8402 16.6417 15.256 15.2257C16.672 13.8099 17.38 12.082 17.38 10.0419C17.38 8.00173 16.672 6.27378 15.256 4.85802C13.8402 3.44199 12.1123 2.73398 10.0721 2.73398C8.032 2.73398 6.30406 3.44199 4.88829 4.85802C3.47227 6.27378 2.76425 8.00173 2.76425 10.0419C2.76425 12.082 3.47227 13.8099 4.88829 15.2257C6.30406 16.6417 8.032 17.3497 10.0721 17.3497ZM8.88463 14.3046V11.2294H5.8094V8.85435H8.88463V5.77912H11.2596V8.85435H14.3349V11.2294H11.2596V14.3046H8.88463Z" fill="#00BBE0"/>
</svg>
